<svg width="12" height="12" viewBox="0 0 12 12" fill="none" xmlns="http://www.w3.org/2000/svg">
<g clip-path="url(#clip0_36_1438)">
<path d="M8.92685 0.169158L9.13565 0.811758C9.20046 1.00728 9.31013 1.18491 9.45589 1.33046C9.60164 1.47601 9.77944 1.58542 9.97505 1.64996L10.6176 1.85876L10.6302 1.86236C10.6798 1.8798 10.7227 1.9122 10.7531 1.95508C10.7835 1.99797 10.7998 2.04921 10.7998 2.10176C10.7998 2.1543 10.7835 2.20555 10.7531 2.24843C10.7227 2.29131 10.6798 2.32371 10.6302 2.34116L9.98765 2.54996C9.79204 2.61449 9.61424 2.72391 9.46849 2.86945C9.32273 3.015 9.21306 3.19264 9.14825 3.38816L8.93945 4.03016C8.922 4.07972 8.8896 4.12265 8.84672 4.15301C8.80384 4.18338 8.75259 4.19968 8.70005 4.19968C8.6475 4.19968 8.59626 4.18338 8.55338 4.15301C8.51049 4.12265 8.4781 4.07972 8.46065 4.03016L8.25125 3.38816C8.18695 3.1922 8.07763 3.01404 7.93205 2.86796C7.78639 2.72159 7.60842 2.61144 7.41245 2.54636L6.76985 2.33756C6.72029 2.32011 6.67736 2.28771 6.647 2.24483C6.61663 2.20195 6.60032 2.1507 6.60032 2.09816C6.60032 2.04561 6.61663 1.99437 6.647 1.95148C6.67736 1.9086 6.72029 1.8762 6.76985 1.85876L7.41245 1.64996C7.60562 1.58368 7.78077 1.47348 7.92414 1.32804C8.0675 1.18259 8.17516 1.00586 8.23865 0.811758L8.44745 0.169758C8.46477 0.119987 8.49715 0.0768419 8.54011 0.0463102C8.58306 0.0157785 8.63445 -0.00062561 8.68715 -0.00062561C8.73985 -0.00062561 8.79124 0.0157785 8.83419 0.0463102C8.87714 0.0768419 8.90953 0.119387 8.92685 0.169158ZM11.8698 4.92836L11.4102 4.77956C11.2708 4.73293 11.1441 4.6545 11.0402 4.55047C10.9362 4.44644 10.8579 4.31966 10.8114 4.18016L10.6614 3.72176C10.649 3.68632 10.6259 3.65561 10.5953 3.63389C10.5646 3.61216 10.528 3.60049 10.4904 3.60049C10.4529 3.60049 10.4163 3.61216 10.3856 3.63389C10.355 3.65561 10.3319 3.68632 10.3194 3.72176L10.1706 4.18016C10.125 4.31877 10.048 4.44497 9.94559 4.54894C9.84318 4.65291 9.71815 4.73183 9.58025 4.77956L9.12125 4.92836C9.08608 4.94105 9.05568 4.96428 9.03419 4.99488C9.0127 5.02548 9.00118 5.06197 9.00118 5.09936C9.00118 5.13675 9.0127 5.17323 9.03419 5.20383C9.05568 5.23443 9.08608 5.25766 9.12125 5.27036L9.58025 5.41976C9.72012 5.4664 9.84719 5.54503 9.95135 5.6494C10.0555 5.75377 10.1339 5.88099 10.1802 6.02096L10.329 6.47936C10.3415 6.5148 10.3646 6.5455 10.3952 6.56723C10.4259 6.58895 10.4625 6.60062 10.5 6.60062C10.5376 6.60062 10.5742 6.58895 10.6049 6.56723C10.6355 6.5455 10.6586 6.5148 10.671 6.47936L10.8204 6.02096C10.867 5.88139 10.9454 5.75456 11.0494 5.65053C11.1535 5.54649 11.2803 5.4681 11.4198 5.42156L11.8788 5.27276C11.914 5.26006 11.9444 5.23683 11.9659 5.20623C11.9874 5.17563 11.9989 5.13915 11.9989 5.10176C11.9989 5.06437 11.9874 5.02788 11.9659 4.99728C11.9444 4.96668 11.914 4.94345 11.8788 4.93076L11.8698 4.92836ZM5.70005 1.79996C5.81765 1.80076 5.92825 1.82176 6.03185 1.86296C5.9721 2.07465 5.99594 2.30121 6.09845 2.49583C6.20095 2.69045 6.37428 2.83827 6.58265 2.90876L6.60005 2.91476V4.49996C6.60005 4.73865 6.50523 4.96757 6.33644 5.13635C6.16766 5.30514 5.93874 5.39996 5.70005 5.39996H2.70005C2.46135 5.39996 2.23244 5.30514 2.06365 5.13635C1.89487 4.96757 1.80005 4.73865 1.80005 4.49996V2.69996C1.80005 2.46126 1.89487 2.23234 2.06365 2.06356C2.23244 1.89478 2.46135 1.79996 2.70005 1.79996H5.70005ZM3.30005 6.59996H2.70005C2.46135 6.59996 2.23244 6.69478 2.06365 6.86356C1.89487 7.03234 1.80005 7.26126 1.80005 7.49996V9.29996C1.80005 9.53865 1.89487 9.76757 2.06365 9.93635C2.23244 10.1051 2.46135 10.2 2.70005 10.2H3.30005C3.53874 10.2 3.76766 10.1051 3.93644 9.93635C4.10523 9.76757 4.20005 9.53865 4.20005 9.29996V7.49996C4.20005 7.26126 4.10523 7.03234 3.93644 6.86356C3.76766 6.69478 3.53874 6.59996 3.30005 6.59996ZM6.30005 6.59996C6.06135 6.59996 5.83244 6.69478 5.66365 6.86356C5.49487 7.03234 5.40005 7.26126 5.40005 7.49996V9.29996C5.40005 9.53865 5.49487 9.76757 5.66365 9.93635C5.83244 10.1051 6.06135 10.2 6.30005 10.2H9.30005C9.53874 10.2 9.76766 10.1051 9.93644 9.93635C10.1052 9.76757 10.2 9.53865 10.2 9.29996V7.49996C10.2 7.26126 10.1052 7.03234 9.93644 6.86356C9.76766 6.69478 9.53874 6.59996 9.30005 6.59996H6.30005Z" fill="#D6D4D4"/>
</g>
<defs>
<clipPath id="clip0_36_1438">
<rect width="12" height="12" fill="white"/>
</clipPath>
</defs>
</svg>
