<svg width="11" height="11" viewBox="0 0 11 11" fill="none" xmlns="http://www.w3.org/2000/svg">
<circle cx="5.17249" cy="5.17249" r="5.17249" fill="#EFDB6A"/>
<g opacity="0.3">
<path d="M8.14337 6.86526L5.72071 3.0884C5.67358 3.01856 5.60976 2.96159 5.53503 2.92267C5.46029 2.88375 5.37703 2.86412 5.29278 2.86555C5.20854 2.86412 5.12527 2.88375 5.05054 2.92267C4.9758 2.96159 4.91198 3.01856 4.86485 3.0884L2.4422 6.86526C2.39868 6.93118 2.37549 7.00844 2.37549 7.08743C2.37549 7.16642 2.39868 7.24367 2.4422 7.30959C2.48932 7.37944 2.55315 7.43641 2.62788 7.47533C2.70261 7.51424 2.78588 7.53388 2.87012 7.53245H7.71544C7.8918 7.53245 8.05518 7.44768 8.14337 7.31028C8.23155 7.17288 8.23155 7.00266 8.14337 6.86594M5.58468 6.94866H5.00089V6.36555H5.58468V6.94866ZM5.58468 4.03176V6.07366H5.00089V4.03176H5.58468Z" fill="black"/>
</g>
</svg>
